<?xml version="1.0" standalone="no"?>
<!DOCTYPE svg PUBLIC "-//W3C//DTD SVG 20010904//EN"
 "http://www.w3.org/TR/2001/REC-SVG-20010904/DTD/svg10.dtd">
<svg version="1.0" xmlns="http://www.w3.org/2000/svg"
 width="512.000000pt" height="512.000000pt" viewBox="0 0 512.000000 512.000000"
 preserveAspectRatio="xMidYMid meet">

<g transform="translate(0.000000,512.000000) scale(0.100000,-0.100000)"
fill="#000000" stroke="none">
<path d="M176 4810 c-67 -26 -131 -91 -156 -158 -17 -45 -20 -78 -20 -220 0
-155 2 -170 20 -190 14 -14 33 -22 55 -22 22 0 41 8 55 22 18 20 20 35 20 180
0 177 7 204 63 238 31 20 69 20 2347 20 2278 0 2316 0 2347 -20 66 -40 63 13
63 -968 0 -880 0 -888 20 -910 28 -30 82 -30 110 0 20 22 20 30 20 920 0 870
-1 899 -20 950 -26 68 -90 133 -158 158 -52 20 -80 20 -2385 20 -2278 -1
-2333 -1 -2381 -20z"/>
<path d="M745 4366 c-37 -17 -80 -62 -94 -99 -8 -19 -11 -331 -11 -978 l0
-949 -47 0 c-30 0 -60 -7 -80 -20 -53 -32 -63 -63 -63 -205 0 -142 10 -173 63
-205 31 -20 61 -20 1457 -20 1556 1 1449 -4 1471 60 10 27 9 36 -8 58 l-20 27
-1407 3 -1406 2 0 75 0 75 1960 0 1960 0 0 -75 0 -75 -421 -2 -422 -3 -20 -27
c-17 -22 -18 -31 -8 -58 21 -61 6 -59 486 -60 419 0 442 1 472 20 53 32 63 63
63 205 0 142 -10 173 -63 205 -26 16 -50 20 -124 20 l-93 0 0 843 c0 946 5
877 -74 942 l-38 30 -278 3 -278 3 -4 55 c-5 62 -40 114 -98 145 -31 17 -61
19 -310 19 -227 0 -280 -3 -304 -15 -26 -14 -33 -14 -62 0 -27 13 -93 15 -427
15 -255 0 -406 -4 -424 -11 -38 -14 -83 -57 -99 -96 -10 -23 -14 -79 -14 -193
l0 -160 -259 0 -260 0 -3 174 -3 174 -30 38 c-60 73 -66 74 -375 74 -207 -1
-282 -4 -305 -14z m563 -208 l3 -68 -261 0 -260 0 0 63 c0 35 3 67 7 71 4 3
119 5 257 4 l251 -3 3 -67z m1590 0 l3 -68 -386 0 -385 0 0 63 c0 35 3 67 7
70 4 4 176 6 382 5 l376 -3 3 -67z m1340 -225 l3 -73 -261 0 -260 0 0 68 c0
38 3 72 7 76 4 3 119 5 257 4 l251 -3 3 -72z m-2928 -428 l0 -435 -260 0 -260
0 0 435 0 435 260 0 260 0 0 -435z m1590 260 l0 -175 -114 0 c-63 0 -122 -3
-131 -6 -28 -11 -46 -59 -35 -90 19 -48 36 -53 163 -54 l117 0 0 -305 0 -305
-385 0 -385 0 0 305 0 305 118 0 c126 1 143 6 162 54 11 31 -7 79 -35 90 -9 3
-68 6 -131 6 l-114 0 0 175 0 175 385 0 385 0 0 -175z m-922 -87 l3 -88 -261
0 -260 0 0 83 c0 46 3 87 7 91 4 3 119 5 257 4 l251 -3 3 -87z m1592 -198 l0
-230 -260 0 -260 0 0 230 0 230 260 0 260 0 0 -230z m-1590 -425 l0 -385 -260
0 -260 0 0 385 0 385 260 0 260 0 0 -385z m-670 -260 l0 -125 -260 0 -260 0 0
125 0 125 260 0 260 0 0 -125z m1590 -285 l0 -170 -385 0 -385 0 0 170 0 170
385 0 385 0 0 -170z m-1590 -80 l0 -90 -260 0 -260 0 0 90 0 90 260 0 260 0 0
-90z m670 0 l0 -90 -260 0 -260 0 0 90 0 90 260 0 260 0 0 -90z m2260 -15 l0
-75 -260 0 -260 0 0 75 0 75 260 0 260 0 0 -75z"/>
<path d="M20 3988 c-20 -22 -20 -22 -18 -1388 l3 -1365 22 -41 c36 -67 70
-101 131 -131 l57 -28 998 -3 c780 -2 997 -5 994 -15 -2 -7 -17 -53 -33 -103
l-29 -92 -101 -4 c-85 -4 -111 -9 -158 -32 -140 -69 -227 -224 -202 -361 8
-43 59 -103 103 -121 26 -11 174 -14 773 -14 816 0 779 -3 837 63 102 116 12
354 -165 435 -45 20 -76 26 -157 30 l-100 4 -29 92 c-16 50 -31 96 -33 103 -3
10 214 13 994 15 l998 3 57 28 c61 30 95 64 131 131 22 41 22 43 25 676 3 631
2 636 -18 658 -28 30 -82 30 -110 0 -20 -21 -20 -33 -20 -480 l0 -458 -2410 0
-2410 0 0 1190 c0 1177 0 1190 -20 1210 -28 28 -83 27 -110 -2z"/>
</g>
</svg>
